#N canvas -8 -8 1920 997 10;
#X text 177 277 creation arguments are OSC address;
#X text 179 238 set message to change OSC address;
#X text 164 48 1 Set IP Address : network address;
#X text 164 68 2 Set Ports (sending and listening);
#X text 164 87 3 Set OSC Addresses (routing osc data;
#X text 155 26 Key Settings;
#X floatatom 43 194 5 0 0 0 - - -;
#N canvas 591 23 623 462 oscReceive 0;
#X obj 55 184 netreceive -u -b;
#X msg 78 143 listen 0;
#X text 152 143 stop listening;
#X text 64 58 packets from network;
#X text 173 177 UDP packets \, binary output, f 13;
#X obj 45 314 print;
#X obj 45 272 oscparse;
#X text 150 114 listen on port 8000;
#X obj 177 269 oscparse;
#X obj 177 293 list trim;
#X floatatom 140 380 5 0 0 0 - - -;
#X text 241 267 Parse the OSC message;
#X obj 177 319 route unity;
#X obj 139 357 route trigger;
#X obj 140 407 s osctrig;
#X msg 66 115 listen 8000;
#X obj 66 84 loadbang;
#X floatatom 244 382 5 0 0 0 - - -;
#X obj 243 359 route tempo;
#X obj 244 409 s osctempo;
#X floatatom 339 382 5 0 0 0 - - -;
#X obj 338 359 route playseq;
#X obj 339 409 s oscplayseq;
#X floatatom 437 382 5 0 0 0 - - -;
#X obj 436 359 route colwall;
#X obj 437 409 s oscwall;
#X connect 0 0 6 0;
#X connect 0 0 8 0;
#X connect 1 0 0 0;
#X connect 6 0 5 0;
#X connect 8 0 9 0;
#X connect 9 0 12 0;
#X connect 10 0 14 0;
#X connect 12 0 13 0;
#X connect 12 0 18 0;
#X connect 12 0 21 0;
#X connect 12 0 24 0;
#X connect 13 0 10 0;
#X connect 15 0 0 0;
#X connect 16 0 15 0;
#X connect 17 0 19 0;
#X connect 18 0 17 0;
#X connect 20 0 22 0;
#X connect 21 0 20 0;
#X connect 23 0 25 0;
#X connect 24 0 23 0;
#X restore 47 142 pd oscReceive;
#X obj 47 35 tgl 15 0 empty empty empty 17 7 0 10 -262144 -1 -1 0 1
;
#X msg 47 61 \; pd dsp \$1;
#X obj 44 278 oscformat PD message;
#X msg 76 239 set PD message;
#N canvas 727 97 450 300 oscSend 0;
#X msg 158 207 disconnect;
#X obj 61 253 netsend -u -b;
#X obj 59 55 list prepend send;
#X obj 59 80 list trim;
#X msg 150 175 connect 127.0.0.1 8001;
#X obj 59 29 r oscOut;
#X text 301 163 send to port 8001;
#X msg 147 148 connect localhost 8001;
#X obj 147 108 loadbang;
#X connect 0 0 1 0;
#X connect 2 0 3 0;
#X connect 3 0 1 0;
#X connect 4 0 1 0;
#X connect 5 0 2 0;
#X connect 7 0 1 0;
#X connect 8 0 7 0;
#X restore 47 118 pd oscSend;
#X obj 44 313 s oscOut;
#X obj 2465 365 metro 4000;
#X obj 2467 332 tgl 15 0 empty empty empty 17 7 0 10 -262144 -1 -1
0 1;
#X floatatom 2523 336 5 0 0 0 - - -;
#X obj 2397 397 f;
#X obj 2489 401 + 1;
#X obj 2098 331 bng 15 250 50 0 empty empty empty 17 7 0 10 -262144
-1 -1;
#X obj 2583 285 r osctempo;
#X obj 2508 259 loadbang;
#X obj 2414 260 r oscplayseq;
#X obj 2112 236 r oscwall;
#X floatatom 2439 750 5 0 0 0 - - -;
#X obj 2465 959 *~;
#X obj 2459 1044 dac~;
#X obj 2738 607 vline~;
#X obj 2438 794 phasor~;
#X obj 2369 456 mod 13;
#X obj 2365 515 select 0 1 2 3 4 5 6 7 8 9 10 11 12;
#X obj 2595 568 loadbang;
#X msg 2595 591 62;
#X floatatom 2601 628 5 0 0 0 - - -;
#X obj 2438 677 + 0;
#X obj 2436 714 mtof;
#X msg 2366 569 0;
#X msg 2408 569 4;
#X msg 2451 569 5;
#X msg 2493 569 7;
#X msg 2537 569 9;
#X text 2639 695 midi value 62 is equivalent of starting at middle
D;
#X msg 2705 513 1 25 \, 0 65 75;
#N canvas 94 23 1249 800 var1 0;
#X obj 166 50 inlet;
#X obj 166 259 int;
#X obj 207 259 + 1;
#X obj 166 451 mtof;
#X obj 166 483 phasor~;
#X obj 165 509 *~ 2;
#X obj 166 533 -~ 1;
#X obj 166 565 lop~;
#X obj 281 612 *~;
#X obj 282 664 *~;
#X obj 282 719 dac~;
#X obj 418 565 vline~;
#X obj 166 357 select 0 1 2 3;
#X obj 166 220 metro 80;
#X msg 418 486 1 15 \, 0 15 75;
#X msg 298 483 1000;
#X msg 225 413 39;
#X msg 261 483 1500;
#X msg 335 483 200;
#X msg 525 486 0.8 30 \, 0 20 75;
#X msg 166 413 45;
#X obj 327 645 r volume;
#X msg 196 413 43;
#X msg 254 413 34;
#X msg 231 483 100;
#X obj 166 328 mod 5;
#X obj 166 295 moses;
#X floatatom 262 277 5 0 0 0 - - -;
#X msg 262 249 5;
#X obj 262 219 loadbang;
#X obj 86 218 r start;
#X connect 0 0 13 0;
#X connect 1 0 2 0;
#X connect 1 0 26 0;
#X connect 2 0 1 1;
#X connect 3 0 4 0;
#X connect 4 0 5 0;
#X connect 5 0 6 0;
#X connect 6 0 7 0;
#X connect 7 0 8 0;
#X connect 8 0 9 0;
#X connect 9 0 10 0;
#X connect 9 0 10 1;
#X connect 11 0 8 1;
#X connect 12 0 20 0;
#X connect 12 0 24 0;
#X connect 12 0 14 0;
#X connect 12 1 17 0;
#X connect 12 1 19 0;
#X connect 12 1 22 0;
#X connect 12 2 19 0;
#X connect 12 2 15 0;
#X connect 12 2 16 0;
#X connect 12 3 19 0;
#X connect 12 3 23 0;
#X connect 12 3 18 0;
#X connect 13 0 1 0;
#X connect 14 0 11 0;
#X connect 15 0 7 1;
#X connect 16 0 3 0;
#X connect 17 0 7 1;
#X connect 18 0 7 1;
#X connect 19 0 11 0;
#X connect 20 0 3 0;
#X connect 21 0 9 1;
#X connect 22 0 3 0;
#X connect 23 0 3 0;
#X connect 24 0 7 1;
#X connect 25 0 12 0;
#X connect 26 0 25 0;
#X connect 27 0 26 1;
#X connect 28 0 27 0;
#X connect 29 0 28 0;
#X connect 30 0 1 0;
#X restore 2133 573 pd var1;
#X obj 2165 300 vsl 15 128 0 1 0 0 empty empty empty 0 -9 0 10 -262144
-1 -1 0 1;
#X obj 2165 439 s volume;
#X msg 2063 600 0;
#X obj 2063 626 s start;
#X obj 2063 573 select 1;
#X obj 2102 449 tgl 15 0 empty empty empty 17 7 0 10 -262144 -1 -1
0 1;
#X obj 2467 995 *~;
#X obj 2764 857 vsl 15 128 0 1 0 0 empty empty empty 0 -9 0 10 -262144
-1 -1 0 1;
#X text 2763 1027 volume control;
#X obj 2534 807 phasor~;
#X obj 2533 776 * -1;
#X msg 2533 720 0;
#X msg 2581 720 0.5;
#X obj 2554 690 bng 15 250 50 0 empty empty empty 17 7 0 10 -262144
-1 -1;
#X obj 2553 665 loadbang;
#X obj 2475 872 +~;
#X obj 2472 914 -~ 1;
#X text 2712 476 control to prevent click and popping;
#X msg 2523 303 550;
#X text 2033 209 Wall: This trigger is intiated when ball runs into
wall;
#X text 2400 208 Sequence Playback : tempo increases as more cubes
are collected;
#X floatatom 245 561 5 0 0 0 - - -;
#X obj 245 715 *~;
#X obj 244 530 mtof;
#X obj 298 482 + 0;
#X obj 360 621 vline~;
#X floatatom 87 437 5 0 0 0 - - -;
#X obj 87 384 loadbang;
#X msg 457 279 0;
#X floatatom 462 144 5 0 0 0 - - -;
#X msg 496 279 2;
#X msg 537 279 4;
#X obj 462 111 r osctrig;
#X obj 252 640 phasor~;
#X obj 179 640 phasor~;
#X obj 567 125 select 0 1 2 3 4 5 6 7 8 9 10 11 12 13 14;
#X msg 360 569 1 100 \, 0 100 100 \, 1 100 200 \, 0 100 300;
#X msg 579 279 6;
#X msg 616 280 8;
#X msg 657 280 10;
#X msg 699 280 12;
#X msg 733 280 14;
#X msg 769 279 16;
#X msg 808 279 18;
#X msg 849 279 20;
#X msg 891 279 22;
#X msg 928 280 24;
#X msg 969 280 26;
#X msg 1014 280 28;
#X floatatom 951 565 5 0 0 0 - - -;
#X obj 951 719 *~;
#X obj 950 534 mtof;
#X obj 1004 486 + 0;
#X obj 1066 625 vline~;
#X floatatom 1205 426 5 0 0 0 - - -;
#X obj 1205 373 loadbang;
#X obj 958 644 phasor~;
#X obj 885 644 phasor~;
#X msg 1066 573 0 \, 1 100 400 \, 0 100 500;
#X obj 1300 383 f;
#X msg 1372 219 0;
#X obj 1347 378 + 2;
#X floatatom 1304 430 5 0 0 0 - - -;
#X obj 1383 278 metro 200;
#X floatatom 1340 566 5 0 0 0 - - -;
#X obj 1340 720 *~;
#X obj 1339 535 mtof;
#X obj 1393 487 + 0;
#X obj 1455 626 vline~;
#X floatatom 1458 447 5 0 0 0 - - -;
#X obj 1458 394 loadbang;
#X obj 1347 645 phasor~;
#X obj 1274 645 phasor~;
#X msg 1460 574 1 100 \, 0 100 100;
#X obj 1373 158 delay;
#X msg 1272 118 1000;
#X msg 1370 113 3000;
#X obj 1270 168 delay;
#X obj 1607 392 f;
#X msg 1679 228 0;
#X obj 1652 391 + 2;
#X floatatom 1611 439 5 0 0 0 - - -;
#X floatatom 1647 575 5 0 0 0 - - -;
#X obj 1647 729 *~;
#X obj 1646 544 mtof;
#X obj 1700 496 + 0;
#X obj 1762 635 vline~;
#X floatatom 1765 456 5 0 0 0 - - -;
#X obj 1765 403 loadbang;
#X obj 1654 654 phasor~;
#X obj 1581 654 phasor~;
#X obj 1675 163 delay;
#X obj 1567 166 delay;
#X msg 1569 116 3500;
#X obj 1690 287 metro 80;
#X msg 1767 583 1 40 \, 0 40 40;
#X msg 1672 118 3820;
#X text 584 217 click on message block for sounnd testing.;
#X text 366 533 a volume control command for preventing pop and click
sound.;
#X text 88 344 pre-load bang for basic range of pitch of the sound
effect;
#X text 1118 83 first delay for turning the sound on.;
#X text 1339 65 second delay for turning the sound off;
#X text 1624 86 Structure is same as the left;
#X text 1020 435 structure is same as the left;
#X text 108 638 comment;
#X obj 254 613 * 3;
#X obj 960 617 * 3;
#X obj 1349 618 * 3;
#X obj 1656 627 * 3;
#X msg 87 411 40;
#X msg 1205 400 44;
#X msg 1458 421 44;
#X msg 1765 430 60;
#X text 568 238 slowly progressing pitch as the game is progressing
;
#X text 1280 325 a looping for incresing the pitch;
#X text 1393 247 pitch increases with metro command;
#X obj 1909 105 vsl 15 128 100 10000 1 0 empty empty empty 0 -9 0 10
-262144 -1 -1 0 1;
#X floatatom 1905 560 5 0 0 0 - - -;
#X obj 1908 298 / 10000;
#X obj 1772 847 dac~;
#X obj 1775 775 *~;
#X text 1896 64 volume slider;
#X text 552 77 Pick Up: select leads to different sound effect depends
on which cube is being picked up.;
#X connect 6 0 10 0;
#X connect 8 0 9 0;
#X connect 10 0 13 0;
#X connect 11 0 10 0;
#X connect 14 0 17 0;
#X connect 14 0 42 0;
#X connect 15 0 14 0;
#X connect 16 0 14 1;
#X connect 17 0 18 0;
#X connect 17 0 29 0;
#X connect 18 0 17 1;
#X connect 19 0 49 0;
#X connect 20 0 16 0;
#X connect 21 0 62 0;
#X connect 22 0 15 0;
#X connect 22 0 62 0;
#X connect 23 0 19 0;
#X connect 24 0 28 0;
#X connect 24 0 54 0;
#X connect 25 0 50 0;
#X connect 27 0 25 1;
#X connect 28 0 59 0;
#X connect 29 0 30 0;
#X connect 30 0 36 0;
#X connect 30 1 37 0;
#X connect 30 2 38 0;
#X connect 30 3 36 0;
#X connect 30 4 37 0;
#X connect 30 5 38 0;
#X connect 30 6 36 0;
#X connect 30 7 37 0;
#X connect 30 8 38 0;
#X connect 30 9 39 0;
#X connect 30 10 40 0;
#X connect 30 11 37 0;
#X connect 30 12 38 0;
#X connect 31 0 32 0;
#X connect 32 0 33 0;
#X connect 33 0 34 1;
#X connect 34 0 35 0;
#X connect 35 0 24 0;
#X connect 36 0 34 0;
#X connect 37 0 34 0;
#X connect 38 0 34 0;
#X connect 39 0 34 0;
#X connect 40 0 34 0;
#X connect 42 0 27 0;
#X connect 44 0 45 0;
#X connect 46 0 47 0;
#X connect 48 0 46 0;
#X connect 49 0 48 0;
#X connect 49 0 43 0;
#X connect 50 0 26 0;
#X connect 50 0 26 1;
#X connect 51 0 50 1;
#X connect 53 0 59 1;
#X connect 54 0 53 0;
#X connect 55 0 28 1;
#X connect 56 0 53 1;
#X connect 57 0 55 0;
#X connect 57 0 56 0;
#X connect 58 0 57 0;
#X connect 59 0 60 0;
#X connect 60 0 25 0;
#X connect 62 0 16 0;
#X connect 65 0 78 0;
#X connect 65 0 149 0;
#X connect 66 0 164 0;
#X connect 67 0 65 0;
#X connect 68 0 67 0;
#X connect 68 0 80 0;
#X connect 69 0 66 1;
#X connect 70 0 68 1;
#X connect 71 0 153 0;
#X connect 72 0 68 0;
#X connect 72 0 96 0;
#X connect 73 0 79 0;
#X connect 74 0 68 0;
#X connect 74 0 96 0;
#X connect 75 0 68 0;
#X connect 75 0 96 0;
#X connect 76 0 73 0;
#X connect 77 0 66 0;
#X connect 78 0 66 0;
#X connect 79 0 72 0;
#X connect 79 1 74 0;
#X connect 79 2 75 0;
#X connect 79 3 81 0;
#X connect 79 4 82 0;
#X connect 79 5 83 0;
#X connect 79 6 84 0;
#X connect 79 7 85 0;
#X connect 79 8 86 0;
#X connect 79 9 87 0;
#X connect 79 10 88 0;
#X connect 79 11 89 0;
#X connect 79 12 90 0;
#X connect 79 13 91 0;
#X connect 79 14 92 0;
#X connect 80 0 69 0;
#X connect 81 0 68 0;
#X connect 81 0 96 0;
#X connect 82 0 68 0;
#X connect 82 0 96 0;
#X connect 83 0 68 0;
#X connect 83 0 96 0;
#X connect 84 0 68 0;
#X connect 84 0 96 0;
#X connect 85 0 68 0;
#X connect 85 0 96 0;
#X connect 86 0 68 0;
#X connect 86 0 96 0;
#X connect 87 0 68 0;
#X connect 87 0 96 0;
#X connect 88 0 68 0;
#X connect 88 0 96 0;
#X connect 89 0 68 0;
#X connect 89 0 96 0;
#X connect 90 0 68 0;
#X connect 90 0 96 0;
#X connect 91 0 68 0;
#X connect 91 0 96 0;
#X connect 92 0 120 0;
#X connect 92 0 96 0;
#X connect 92 0 68 0;
#X connect 92 0 119 0;
#X connect 92 0 140 0;
#X connect 92 0 137 0;
#X connect 93 0 101 0;
#X connect 93 0 150 0;
#X connect 94 0 164 0;
#X connect 95 0 93 0;
#X connect 96 0 95 0;
#X connect 96 0 102 0;
#X connect 97 0 94 1;
#X connect 98 0 96 1;
#X connect 99 0 154 0;
#X connect 100 0 94 0;
#X connect 101 0 94 0;
#X connect 102 0 97 0;
#X connect 103 0 105 0;
#X connect 103 0 106 0;
#X connect 104 0 103 1;
#X connect 104 0 107 0;
#X connect 105 0 103 1;
#X connect 106 0 111 0;
#X connect 107 0 103 0;
#X connect 107 0 117 0;
#X connect 108 0 116 0;
#X connect 108 0 151 0;
#X connect 109 0 164 0;
#X connect 110 0 108 0;
#X connect 111 0 110 0;
#X connect 111 0 117 0;
#X connect 112 0 109 1;
#X connect 113 0 111 1;
#X connect 114 0 155 0;
#X connect 115 0 109 0;
#X connect 116 0 109 0;
#X connect 117 0 112 0;
#X connect 118 0 104 0;
#X connect 119 0 121 0;
#X connect 120 0 118 0;
#X connect 121 0 107 0;
#X connect 122 0 124 0;
#X connect 122 0 125 0;
#X connect 123 0 122 1;
#X connect 123 0 138 0;
#X connect 124 0 122 1;
#X connect 125 0 129 0;
#X connect 126 0 134 0;
#X connect 126 0 152 0;
#X connect 127 0 164 0;
#X connect 128 0 126 0;
#X connect 129 0 128 0;
#X connect 129 0 139 0;
#X connect 130 0 127 1;
#X connect 131 0 129 1;
#X connect 132 0 156 0;
#X connect 133 0 127 0;
#X connect 134 0 127 0;
#X connect 135 0 123 0;
#X connect 136 0 138 0;
#X connect 137 0 136 0;
#X connect 138 0 122 0;
#X connect 138 0 139 0;
#X connect 139 0 130 0;
#X connect 140 0 135 0;
#X connect 149 0 77 0;
#X connect 150 0 100 0;
#X connect 151 0 115 0;
#X connect 152 0 133 0;
#X connect 153 0 70 0;
#X connect 154 0 98 0;
#X connect 155 0 113 0;
#X connect 156 0 131 0;
#X connect 160 0 162 0;
#X connect 161 0 164 1;
#X connect 162 0 161 0;
#X connect 164 0 163 0;
#X connect 164 0 163 1;
